<?xml version="1.0" standalone="no"?>
<!DOCTYPE svg PUBLIC "-//W3C//DTD SVG 20010904//EN"
 "http://www.w3.org/TR/2001/REC-SVG-20010904/DTD/svg10.dtd">
<svg version="1.0" xmlns="http://www.w3.org/2000/svg"
 width="1017.000000pt" height="775.000000pt" viewBox="0 0 420.000000 350.000000"
 preserveAspectRatio="xMidYMid meet">
<metadata>
Created by potrace 1.10, written by Peter Selinger 2001-2011
</metadata>
<g transform="translate(0.000000,775.000000) scale(0.100000,-0.100000)"
fill="currentColor" stroke="none">
<path d="M1450 7427 l-22 -94 -95 -18 c-86 -16 -97 -16 -107 -3 -6 9 -33 46
-59 83 -27 37 -53 64 -60 61 -7 -2 -52 -22 -102 -42 -49 -21 -91 -39 -93 -40
-2 -1 4 -40 12 -86 9 -47 16 -91 16 -99 0 -13 -139 -119 -155 -119 -3 0 -42
23 -86 50 -44 28 -84 50 -87 50 -4 0 -41 -34 -83 -76 l-77 -77 54 -84 55 -85
-53 -79 c-30 -44 -60 -78 -69 -79 -9 0 -52 7 -94 16 -42 9 -81 12 -85 7 -9 -9
-92 -205 -88 -208 127 -92 158 -119 153 -135 -3 -10 -12 -50 -19 -89 -8 -40
-16 -74 -18 -76 -2 -3 -45 -12 -96 -22 l-92 -17 0 -117 0 -118 95 -22 c80 -18
96 -25 100 -43 2 -11 9 -48 16 -81 6 -33 13 -64 16 -71 2 -6 -29 -33 -68 -60
-40 -27 -77 -52 -83 -56 -10 -7 72 -218 85 -218 4 0 43 7 86 15 43 8 83 15 90
15 12 0 113 -141 113 -156 0 -5 -23 -43 -52 -87 l-51 -78 79 -80 79 -79 80 50
c44 27 84 50 88 50 6 0 138 -84 165 -105 3 -3 -8 -49 -39 -168 -7 -27 -14 -37
-25 -33 -12 4 -14 -16 -14 -124 l0 -130 210 0 210 0 0 153 c0 85 3 156 6 159
3 3 20 2 37 -2 18 -5 48 -11 68 -14 l37 -6 22 -95 21 -95 115 0 c110 0 114 1
119 23 3 12 11 53 19 91 15 72 25 86 66 86 14 0 50 7 80 15 30 8 58 15 61 15
3 0 32 -36 64 -80 32 -44 61 -80 64 -80 3 0 12 4 20 9 12 8 11 13 -5 34 -35
46 -197 241 -256 308 l-57 66 -48 -8 c-170 -28 -406 12 -575 97 -147 74 -297
204 -386 336 -132 196 -179 367 -169 611 6 154 33 259 98 390 205 408 634 628
1074 552 71 -13 90 -13 103 -3 24 20 312 359 312 367 0 8 -94 51 -110 51 -4 0
-33 -36 -64 -80 -53 -73 -60 -79 -84 -73 -15 4 -58 14 -97 23 l-70 16 -14 54
c-7 30 -18 72 -23 93 l-9 37 -114 0 -114 0 -21 -93z"/>
<path d="M2333 7453 c-27 -32 -132 -155 -232 -273 -101 -118 -323 -376 -494
-573 -249 -286 -313 -355 -318 -340 -4 10 -5 154 -2 320 3 166 3 309 -1 318
-14 37 -232 -92 -347 -205 l-78 -77 -3 -94 c-2 -52 -2 -309 0 -572 l2 -478 33
-41 c51 -64 184 -165 282 -213 50 -25 95 -45 100 -45 6 0 11 86 12 231 2 224
2 232 24 255 12 13 26 21 31 18 9 -6 717 -846 907 -1076 l114 -138 275 0 c261
0 274 1 260 18 -191 226 -500 593 -663 787 -115 138 -242 289 -282 336 -40 47
-73 89 -73 92 0 4 161 7 358 7 l357 0 150 -150 150 -150 275 0 275 0 20 -36
c31 -58 87 -89 159 -89 112 0 181 69 181 181 0 79 -29 124 -103 161 -43 21
-61 25 -99 19 -61 -8 -117 -46 -143 -96 l-20 -40 -254 0 -253 0 -147 150 -146
150 -428 0 -427 1 -45 55 c-25 30 -46 59 -48 64 -2 6 211 10 576 10 l580 0 26
-44 c64 -109 206 -125 293 -33 109 115 26 307 -133 307 -70 0 -155 -59 -176
-121 -2 -6 -224 -8 -597 -7 l-594 3 49 57 49 57 436 1 437 0 148 150 148 150
135 0 136 -1 27 -45 c37 -59 98 -88 175 -82 158 13 221 209 100 315 -86 76
-236 48 -284 -53 l-17 -34 -157 0 -157 0 -143 -145 -144 -146 -371 3 -372 3
302 351 c165 193 395 461 510 595 115 134 218 254 229 267 l20 22 -270 0 -271
0 -49 -57z m1112 -888 c51 -50 15 -135 -58 -135 -46 0 -77 31 -77 77 0 76 82
111 135 58z m-354 -524 c17 -18 29 -40 29 -56 0 -34 -50 -85 -83 -85 -13 0
-36 9 -51 21 -21 16 -26 29 -26 64 0 35 5 48 26 64 37 29 70 26 105 -8z m585
-515 c58 -49 25 -140 -51 -140 -42 0 -72 26 -81 71 -5 27 -1 37 24 63 37 36
71 39 108 6z"/>
<path d="M2583 6989 l-212 -244 -1 -197 0 -198 103 0 103 0 112 119 112 120
-2 322 -3 322 -212 -244z"/>
<path d="M2757 6162 c-41 -42 -40 -52 10 -52 33 0 33 1 33 45 0 25 -1 45 -3
45 -2 0 -20 -17 -40 -38z"/>
<path d="M2720 5852 c0 -4 18 -26 40 -47 l40 -39 0 47 0 47 -40 0 c-22 0 -40
-4 -40 -8z"/>
<path d="M2370 5436 l0 -194 322 -381 323 -381 565 0 565 0 44 78 c25 42 75
133 113 202 l68 125 -782 5 -783 5 -5 246 -5 247 -118 121 -117 121 -95 0 -95
0 0 -194z"/>
</g>
</svg>
