<svg id="visual" viewBox="0 0 3096 2160" width="3096" height="2160" xmlns="http://www.w3.org/2000/svg" xmlns:xlink="http://www.w3.org/1999/xlink" version="1.1"><rect x="0" y="0" width="3096" height="2160" fill="#ffffff"></rect><defs><linearGradient id="grad1_0" x1="30.2%" y1="0%" x2="100%" y2="100%"><stop offset="21.333333333333336%" stop-color="#bf0505" stop-opacity="1"></stop><stop offset="78.66666666666666%" stop-color="#bf0505" stop-opacity="1"></stop></linearGradient></defs><defs><linearGradient id="grad1_1" x1="30.2%" y1="0%" x2="100%" y2="100%"><stop offset="21.333333333333336%" stop-color="#bf0505" stop-opacity="1"></stop><stop offset="78.66666666666666%" stop-color="#cf4129" stop-opacity="1"></stop></linearGradient></defs><defs><linearGradient id="grad1_2" x1="30.2%" y1="0%" x2="100%" y2="100%"><stop offset="21.333333333333336%" stop-color="#dd644a" stop-opacity="1"></stop><stop offset="78.66666666666666%" stop-color="#cf4129" stop-opacity="1"></stop></linearGradient></defs><defs><linearGradient id="grad1_3" x1="30.2%" y1="0%" x2="100%" y2="100%"><stop offset="21.333333333333336%" stop-color="#dd644a" stop-opacity="1"></stop><stop offset="78.66666666666666%" stop-color="#e9846c" stop-opacity="1"></stop></linearGradient></defs><defs><linearGradient id="grad1_4" x1="30.2%" y1="0%" x2="100%" y2="100%"><stop offset="21.333333333333336%" stop-color="#f3a38f" stop-opacity="1"></stop><stop offset="78.66666666666666%" stop-color="#e9846c" stop-opacity="1"></stop></linearGradient></defs><defs><linearGradient id="grad1_5" x1="30.2%" y1="0%" x2="100%" y2="100%"><stop offset="21.333333333333336%" stop-color="#f3a38f" stop-opacity="1"></stop><stop offset="78.66666666666666%" stop-color="#fac1b3" stop-opacity="1"></stop></linearGradient></defs><defs><linearGradient id="grad1_6" x1="30.2%" y1="0%" x2="100%" y2="100%"><stop offset="21.333333333333336%" stop-color="#fee0d9" stop-opacity="1"></stop><stop offset="78.66666666666666%" stop-color="#fac1b3" stop-opacity="1"></stop></linearGradient></defs><defs><linearGradient id="grad1_7" x1="30.2%" y1="0%" x2="100%" y2="100%"><stop offset="21.333333333333336%" stop-color="#fee0d9" stop-opacity="1"></stop><stop offset="78.66666666666666%" stop-color="#ffffff" stop-opacity="1"></stop></linearGradient></defs><defs><linearGradient id="grad2_0" x1="0%" y1="0%" x2="69.8%" y2="100%"><stop offset="21.333333333333336%" stop-color="#bf0505" stop-opacity="1"></stop><stop offset="78.66666666666666%" stop-color="#bf0505" stop-opacity="1"></stop></linearGradient></defs><defs><linearGradient id="grad2_1" x1="0%" y1="0%" x2="69.8%" y2="100%"><stop offset="21.333333333333336%" stop-color="#cf4129" stop-opacity="1"></stop><stop offset="78.66666666666666%" stop-color="#bf0505" stop-opacity="1"></stop></linearGradient></defs><defs><linearGradient id="grad2_2" x1="0%" y1="0%" x2="69.8%" y2="100%"><stop offset="21.333333333333336%" stop-color="#cf4129" stop-opacity="1"></stop><stop offset="78.66666666666666%" stop-color="#dd644a" stop-opacity="1"></stop></linearGradient></defs><defs><linearGradient id="grad2_3" x1="0%" y1="0%" x2="69.8%" y2="100%"><stop offset="21.333333333333336%" stop-color="#e9846c" stop-opacity="1"></stop><stop offset="78.66666666666666%" stop-color="#dd644a" stop-opacity="1"></stop></linearGradient></defs><defs><linearGradient id="grad2_4" x1="0%" y1="0%" x2="69.8%" y2="100%"><stop offset="21.333333333333336%" stop-color="#e9846c" stop-opacity="1"></stop><stop offset="78.66666666666666%" stop-color="#f3a38f" stop-opacity="1"></stop></linearGradient></defs><defs><linearGradient id="grad2_5" x1="0%" y1="0%" x2="69.8%" y2="100%"><stop offset="21.333333333333336%" stop-color="#fac1b3" stop-opacity="1"></stop><stop offset="78.66666666666666%" stop-color="#f3a38f" stop-opacity="1"></stop></linearGradient></defs><defs><linearGradient id="grad2_6" x1="0%" y1="0%" x2="69.8%" y2="100%"><stop offset="21.333333333333336%" stop-color="#fac1b3" stop-opacity="1"></stop><stop offset="78.66666666666666%" stop-color="#fee0d9" stop-opacity="1"></stop></linearGradient></defs><defs><linearGradient id="grad2_7" x1="0%" y1="0%" x2="69.8%" y2="100%"><stop offset="21.333333333333336%" stop-color="#ffffff" stop-opacity="1"></stop><stop offset="78.66666666666666%" stop-color="#fee0d9" stop-opacity="1"></stop></linearGradient></defs><g transform="translate(3096, 0)"><path d="M0 755C-37.9 663.4 -75.8 571.7 -126.6 554.7C-177.5 537.8 -241.2 595.5 -287.2 596.4C-333.2 597.4 -361.4 541.7 -399.7 501.2C-437.9 460.7 -486.3 435.4 -484.7 386.6C-483.2 337.7 -431.7 265.2 -479.3 230.8C-526.9 196.4 -673.6 200.1 -736.1 168C-798.5 135.9 -776.8 67.9 -755 0L0 0Z" fill="#ffefec"></path><path d="M0 660.6C-33.2 580.4 -66.3 500.2 -110.8 485.4C-155.3 470.5 -211.1 521 -251.3 521.9C-291.6 522.7 -316.2 473.9 -349.7 438.5C-383.2 403.1 -425.5 381 -424.1 338.2C-422.8 295.5 -377.7 232.1 -419.4 202C-461.1 171.9 -589.4 175.1 -644.1 147C-698.7 118.9 -679.7 59.4 -660.6 0L0 0Z" fill="#fcd1c6"></path><path d="M0 566.3C-28.4 497.5 -56.8 428.8 -95 416.1C-133.1 403.3 -180.9 446.6 -215.4 447.3C-249.9 448.1 -271 406.2 -299.7 375.9C-328.4 345.5 -364.7 326.6 -363.6 289.9C-362.4 253.3 -323.8 198.9 -359.5 173.1C-395.2 147.3 -505.2 150.1 -552.1 126C-598.9 101.9 -582.6 51 -566.3 0L0 0Z" fill="#f7b2a1"></path><path d="M0 471.9C-23.7 414.6 -47.4 357.3 -79.1 346.7C-110.9 336.1 -150.8 372.2 -179.5 372.8C-208.3 373.4 -225.9 338.5 -249.8 313.2C-273.7 287.9 -303.9 272.1 -303 241.6C-302 211.1 -269.8 165.8 -299.6 144.3C-329.3 122.8 -421 125.1 -460 105C-499.1 84.9 -485.5 42.5 -471.9 0L0 0Z" fill="#ee937d"></path><path d="M0 377.5C-18.9 331.7 -37.9 285.9 -63.3 277.4C-88.7 268.9 -120.6 297.7 -143.6 298.2C-166.6 298.7 -180.7 270.8 -199.8 250.6C-219 230.3 -243.1 217.7 -242.4 193.3C-241.6 168.9 -215.9 132.6 -239.7 115.4C-263.5 98.2 -336.8 100.1 -368 84C-399.3 67.9 -388.4 34 -377.5 0L0 0Z" fill="#e3745b"></path><path d="M0 283.1C-14.2 248.8 -28.4 214.4 -47.5 208C-66.5 201.7 -90.5 223.3 -107.7 223.7C-125 224 -135.5 203.1 -149.9 187.9C-164.2 172.7 -182.4 163.3 -181.8 145C-181.2 126.6 -161.9 99.5 -179.7 86.6C-197.6 73.7 -252.6 75 -276 63C-299.5 51 -291.3 25.5 -283.1 0L0 0Z" fill="#d6533a"></path><path d="M0 188.8C-9.5 165.8 -18.9 142.9 -31.7 138.7C-44.4 134.4 -60.3 148.9 -71.8 149.1C-83.3 149.4 -90.3 135.4 -99.9 125.3C-109.5 115.2 -121.6 108.9 -121.2 96.6C-120.8 84.4 -107.9 66.3 -119.8 57.7C-131.7 49.1 -168.4 50 -184 42C-199.6 34 -194.2 17 -188.8 0L0 0Z" fill="#c72b19"></path><path d="M0 94.4C-4.7 82.9 -9.5 71.5 -15.8 69.3C-22.2 67.2 -30.2 74.4 -35.9 74.6C-41.7 74.7 -45.2 67.7 -50 62.6C-54.7 57.6 -60.8 54.4 -60.6 48.3C-60.4 42.2 -54 33.2 -59.9 28.9C-65.9 24.6 -84.2 25 -92 21C-99.8 17 -97.1 8.5 -94.4 0L0 0Z" fill="#bf0505"></path></g><g transform="translate(0, 2160)"><path d="M0 -755C48.3 -704.1 96.6 -653.2 144.2 -631.8C191.8 -610.3 238.6 -618.2 295.9 -614.5C353.3 -610.8 421.2 -595.5 425.8 -534C430.5 -472.5 372 -364.9 417.5 -332.9C463 -301 612.6 -344.9 680.2 -327.6C747.8 -310.3 733.4 -231.9 732.2 -167.1C731 -102.3 743 -51.2 755 0L0 0Z" fill="#ffefec"></path><path d="M0 -660.6C42.3 -616.1 84.6 -571.6 126.2 -552.8C167.8 -534 208.7 -540.9 258.9 -537.7C309.1 -534.4 368.5 -521 372.6 -467.2C376.7 -413.4 325.5 -319.2 365.3 -291.3C405.2 -263.4 536.1 -301.8 595.2 -286.6C654.3 -271.5 641.7 -202.9 640.6 -146.2C639.6 -89.5 650.1 -44.8 660.6 0L0 0Z" fill="#fcd1c6"></path><path d="M0 -566.3C36.2 -528.1 72.5 -489.9 108.1 -473.8C143.8 -457.7 178.9 -463.6 221.9 -460.8C264.9 -458.1 315.9 -446.6 319.4 -400.5C322.9 -354.4 279 -273.6 313.1 -249.7C347.3 -225.8 459.5 -258.7 510.2 -245.7C560.9 -232.7 550 -173.9 549.1 -125.3C548.2 -76.7 557.2 -38.4 566.3 0L0 0Z" fill="#f7b2a1"></path><path d="M0 -471.9C30.2 -440.1 60.4 -408.3 90.1 -394.8C119.8 -381.4 149.1 -386.3 184.9 -384C220.8 -381.7 263.2 -372.2 266.2 -333.7C269.1 -295.3 232.5 -228 260.9 -208.1C289.4 -188.1 382.9 -215.5 425.1 -204.7C467.4 -193.9 458.4 -144.9 457.6 -104.4C456.9 -64 464.4 -32 471.9 0L0 0Z" fill="#ee937d"></path><path d="M0 -377.5C24.2 -352.1 48.3 -326.6 72.1 -315.9C95.9 -305.1 119.3 -309.1 148 -307.2C176.6 -305.4 210.6 -297.7 212.9 -267C215.3 -236.3 186 -182.4 208.7 -166.5C231.5 -150.5 306.3 -172.4 340.1 -163.8C373.9 -155.2 366.7 -115.9 366.1 -83.6C365.5 -51.2 371.5 -25.6 377.5 0L0 0Z" fill="#e3745b"></path><path d="M0 -283.1C18.1 -264 36.2 -245 54.1 -236.9C71.9 -228.8 89.5 -231.8 111 -230.4C132.5 -229 157.9 -223.3 159.7 -200.2C161.4 -177.2 139.5 -136.8 156.6 -124.9C173.6 -112.9 229.7 -129.3 255.1 -122.8C280.4 -116.4 275 -87 274.6 -62.7C274.1 -38.4 278.6 -19.2 283.1 0L0 0Z" fill="#d6533a"></path><path d="M0 -188.8C12.1 -176 24.2 -163.3 36 -157.9C47.9 -152.6 59.6 -154.5 74 -153.6C88.3 -152.7 105.3 -148.9 106.5 -133.5C107.6 -118.1 93 -91.2 104.4 -83.2C115.8 -75.3 153.2 -86.2 170.1 -81.9C187 -77.6 183.3 -58 183 -41.8C182.7 -25.6 185.7 -12.8 188.8 0L0 0Z" fill="#c72b19"></path><path d="M0 -94.4C6 -88 12.1 -81.7 18 -79C24 -76.3 29.8 -77.3 37 -76.8C44.2 -76.3 52.6 -74.4 53.2 -66.7C53.8 -59.1 46.5 -45.6 52.2 -41.6C57.9 -37.6 76.6 -43.1 85 -40.9C93.5 -38.8 91.7 -29 91.5 -20.9C91.4 -12.8 92.9 -6.4 94.4 0L0 0Z" fill="#bf0505"></path></g></svg>